<svg xmlns="http://www.w3.org/2000/svg" viewBox="0 0 1200 800"><defs><linearGradient id="bg" x1="99%" y1="41%" x2="1%" y2="59%"><stop offset="0%" stop-color="#fddb92"/><stop offset="100%" stop-color="#d1fdff"/></linearGradient></defs><rect width="1200" height="800" fill="url(#bg)"/><circle cx="930" cy="180" r="90" fill="#fff176" opacity="0.9"/><path d="M0 360 C 300 290, 480 430, 720 360 S 1080 300, 1200 360 L 1200 800 L 0 800 Z" fill="#4dd0e1" opacity="0.85"/><path d="M0 450 C 300 380, 480 520, 720 450 S 1080 390, 1200 450 L 1200 800 L 0 800 Z" fill="#26c6da" opacity="0.85"/><path d="M0 540 C 300 470, 480 610, 720 540 S 1080 480, 1200 540 L 1200 800 L 0 800 Z" fill="#00acc1" opacity="0.85"/><path d="M240 560 q -14 -170 30 -240 q 8 60 40 80 q -6 -90 40 -130 q 12 70 34 96 q 20 -60 70 -74 q -30 60 -24 100 q 40 -30 80 -22 q -50 40 -60 80 q -80 -20 -140 30 q -40 40 -40 80 Z" fill="#2e7d32" opacity="0.8"/></svg>