<svg xmlns="http://www.w3.org/2000/svg" viewBox="0 0 1200 800"><defs><linearGradient id="bg" x1="33%" y1="3%" x2="67%" y2="97%"><stop offset="0%" stop-color="#42275a"/><stop offset="100%" stop-color="#734b6d"/></linearGradient></defs><rect width="1200" height="800" fill="url(#bg)"/><circle cx="334" cy="277" r="7" fill="#ffd54f" opacity="0.85"/><path d="M226 266 q 10.5 -21 21 0" stroke="#ffd54f" stroke-width="5" fill="none" opacity="0.85" transform="rotate(57 226 266)"/><path d="M54 429 q 6 -12 12 0" stroke="#80cbc4" stroke-width="5" fill="none" opacity="0.85" transform="rotate(254 54 429)"/><rect x="632" y="61" width="11" height="4" rx="3" fill="#80cbc4" opacity="0.9" transform="rotate(286 632 61)"/><circle cx="52" cy="245" r="6" fill="#ffd54f" opacity="0.85"/><rect x="680" y="192" width="12" height="5" rx="3" fill="#ffd54f" opacity="0.9" transform="rotate(35 680 192)"/><path d="M827 331 q 8.5 -17 17 0" stroke="#ffd54f" stroke-width="5" fill="none" opacity="0.85" transform="rotate(191 827 331)"/><path d="M851 475 q 4.5 -9 9 0" stroke="#80cbc4" stroke-width="5" fill="none" opacity="0.85" transform="rotate(57 851 475)"/><rect x="428" y="657" width="14" height="6" rx="3" fill="#ffd54f" opacity="0.9" transform="rotate(179 428 657)"/><rect x="39" y="201" width="15" height="6" rx="3" fill="#80cbc4" opacity="0.9" transform="rotate(342 39 201)"/><rect x="1175" y="691" width="9" height="4" rx="3" fill="#ffd54f" opacity="0.9" transform="rotate(180 1175 691)"/><rect x="1137" y="204" width="9" height="4" rx="3" fill="#ffd54f" opacity="0.9" transform="rotate(242 1137 204)"/><rect x="514" y="120" width="20" height="9" rx="3" fill="#ffd54f" opacity="0.9" transform="rotate(213 514 120)"/><rect x="929" y="660" width="14" height="6" rx="3" fill="#80cbc4" opacity="0.9" transform="rotate(136 929 660)"/><circle cx="354" cy="77" r="6" fill="#80cbc4" opacity="0.85"/><rect x="1199" y="628" width="14" height="6" rx="3" fill="#ffd54f" opacity="0.9" transform="rotate(115 1199 628)"/><rect x="1110" y="220" width="16" height="7" rx="3" fill="#ffd54f" opacity="0.9" transform="rotate(97 1110 220)"/><rect x="216" y="5" width="8" height="3" rx="3" fill="#ffd54f" opacity="0.9" transform="rotate(289 216 5)"/><rect x="981" y="0" width="20" height="9" rx="3" fill="#ffd54f" opacity="0.9" transform="rotate(108 981 0)"/><circle cx="884" cy="693" r="4" fill="#ffd54f" opacity="0.85"/><rect x="893" y="659" width="11" height="4" rx="3" fill="#ffd54f" opacity="0.9" transform="rotate(103 893 659)"/><path d="M144 50 q 7.5 -15 15 0" stroke="#ffd54f" stroke-width="5" fill="none" opacity="0.85" transform="rotate(148 144 50)"/><circle cx="247" cy="680" r="6" fill="#ffd54f" opacity="0.85"/><path d="M97 240 q 9.5 -19 19 0" stroke="#ffd54f" stroke-width="5" fill="none" opacity="0.85" transform="rotate(53 97 240)"/><path d="M96 53 q 5 -10 10 0" stroke="#80cbc4" stroke-width="5" fill="none" opacity="0.85" transform="rotate(15 96 53)"/><circle cx="44" cy="535" r="6" fill="#ffd54f" opacity="0.85"/><path d="M687 63 q 5.5 -11 11 0" stroke="#ffd54f" stroke-width="5" fill="none" opacity="0.85" transform="rotate(134 687 63)"/><circle cx="904" cy="589" r="3" fill="#ffd54f" opacity="0.85"/><rect x="985" y="770" width="21" height="9" rx="3" fill="#80cbc4" opacity="0.9" transform="rotate(160 985 770)"/><circle cx="1018" cy="539" r="8" fill="#80cbc4" opacity="0.85"/><g opacity="0.95"><rect x="420" y="330" width="170" height="170" rx="24" fill="#fff"/><circle cx="470" cy="380" r="14" fill="#42275a"/><circle cx="540" cy="380" r="14" fill="#42275a"/><circle cx="470" cy="450" r="14" fill="#42275a"/><circle cx="540" cy="450" r="14" fill="#42275a"/><circle cx="505" cy="415" r="14" fill="#42275a"/><rect x="620" y="330" width="170" height="170" rx="24" fill="#ffd54f"/><circle cx="705" cy="415" r="16" fill="#42275a"/></g></svg>