<svg xmlns="http://www.w3.org/2000/svg" viewBox="0 0 1200 800"><defs><linearGradient id="bg" x1="25%" y1="7%" x2="75%" y2="93%"><stop offset="0%" stop-color="#f6d365"/><stop offset="100%" stop-color="#fda085"/></linearGradient></defs><rect width="1200" height="800" fill="url(#bg)"/><circle cx="298" cy="217" r="75" fill="#ff8c42" opacity="0.14"/><circle cx="355" cy="454" r="126" fill="#fff3b0" opacity="0.16"/><circle cx="923" cy="269" r="123" fill="#fff3b0" opacity="0.17"/><circle cx="1075" cy="609" r="119" fill="#fff3b0" opacity="0.23"/><circle cx="396" cy="92" r="86" fill="#ffffff" opacity="0.22"/><circle cx="1014" cy="609" r="131" fill="#fff3b0" opacity="0.16"/><circle cx="880" cy="112" r="47" fill="#ffffff" opacity="0.10"/><circle cx="91" cy="701" r="62" fill="#ffffff" opacity="0.14"/><circle cx="477" cy="354" r="36" fill="#fff3b0" opacity="0.08"/><circle cx="162" cy="156" r="130" fill="#fff3b0" opacity="0.11"/><circle cx="581" cy="426" r="92" fill="#fff3b0" opacity="0.11"/><circle cx="219" cy="215" r="42" fill="#fff3b0" opacity="0.20"/><circle cx="616" cy="228" r="44" fill="#ffffff" opacity="0.11"/><circle cx="1196" cy="212" r="70" fill="#ff8c42" opacity="0.12"/><circle cx="55" cy="698" r="134" fill="#fff3b0" opacity="0.11"/><circle cx="723" cy="242" r="86" fill="#fff3b0" opacity="0.12"/><circle cx="27" cy="84" r="92" fill="#fff3b0" opacity="0.22"/><circle cx="818" cy="225" r="130" fill="#fff3b0" opacity="0.22"/><circle cx="600" cy="330" r="150" fill="#fff8e1" opacity="0.55"/></svg>