<svg xmlns="http://www.w3.org/2000/svg" viewBox="0 0 1200 800"><defs><linearGradient id="bg" x1="75%" y1="7%" x2="25%" y2="93%"><stop offset="0%" stop-color="#232526"/><stop offset="100%" stop-color="#414345"/></linearGradient></defs><rect width="1200" height="800" fill="url(#bg)"/><circle cx="360" cy="268" r="2.4" fill="#ffffff" opacity="0.87"/><circle cx="20" cy="593" r="3.7" fill="#ffffff" opacity="0.80"/><circle cx="1145" cy="94" r="1.3" fill="#ffffff" opacity="0.59"/><circle cx="927" cy="709" r="3.7" fill="#ffffff" opacity="0.92"/><circle cx="157" cy="667" r="3.8" fill="#ffffff" opacity="0.90"/><circle cx="294" cy="777" r="3.0" fill="#ffffff" opacity="0.41"/><circle cx="600" cy="484" r="2.4" fill="#ffffff" opacity="0.96"/><circle cx="1066" cy="485" r="3.7" fill="#ffffff" opacity="0.84"/><circle cx="336" cy="30" r="3.9" fill="#ffffff" opacity="0.86"/><circle cx="960" cy="499" r="1.4" fill="#ffffff" opacity="0.92"/><circle cx="984" cy="610" r="2.5" fill="#ffffff" opacity="0.44"/><circle cx="401" cy="13" r="4.0" fill="#ffffff" opacity="0.72"/><circle cx="888" cy="236" r="1.2" fill="#ffffff" opacity="0.92"/><circle cx="328" cy="160" r="2.9" fill="#ffffff" opacity="0.91"/><circle cx="764" cy="156" r="3.3" fill="#ffffff" opacity="0.71"/><circle cx="677" cy="473" r="1.2" fill="#ffffff" opacity="0.47"/><circle cx="424" cy="435" r="3.7" fill="#ffffff" opacity="0.91"/><circle cx="745" cy="388" r="3.3" fill="#ffffff" opacity="0.56"/><circle cx="968" cy="594" r="2.4" fill="#ffffff" opacity="0.92"/><circle cx="217" cy="204" r="1.6" fill="#ffffff" opacity="0.55"/><circle cx="456" cy="489" r="1.9" fill="#ffffff" opacity="0.88"/><circle cx="878" cy="691" r="2.3" fill="#ffffff" opacity="0.92"/><circle cx="1058" cy="643" r="2.6" fill="#ffffff" opacity="0.45"/><circle cx="597" cy="545" r="3.4" fill="#ffffff" opacity="0.43"/><circle cx="68" cy="430" r="1.6" fill="#ffffff" opacity="0.31"/><circle cx="1184" cy="503" r="3.3" fill="#ffffff" opacity="0.88"/><circle cx="808" cy="509" r="2.7" fill="#ffffff" opacity="0.76"/><circle cx="125" cy="492" r="2.9" fill="#ffffff" opacity="0.53"/><circle cx="193" cy="705" r="3.6" fill="#ffffff" opacity="0.76"/><circle cx="989" cy="241" r="2.3" fill="#ffffff" opacity="0.62"/><circle cx="979" cy="541" r="3.8" fill="#ffffff" opacity="0.47"/><circle cx="513" cy="141" r="3.7" fill="#ffffff" opacity="0.71"/><circle cx="685" cy="26" r="3.7" fill="#ffffff" opacity="0.80"/><circle cx="359" cy="749" r="2.4" fill="#ffffff" opacity="0.72"/><circle cx="388" cy="680" r="3.8" fill="#ffffff" opacity="0.74"/><circle cx="349" cy="146" r="2.0" fill="#ffffff" opacity="0.86"/><circle cx="997" cy="424" r="1.7" fill="#ffffff" opacity="0.85"/><circle cx="776" cy="349" r="2.6" fill="#ffffff" opacity="0.67"/><circle cx="193" cy="707" r="3.4" fill="#ffffff" opacity="0.32"/><circle cx="580" cy="363" r="1.6" fill="#ffffff" opacity="0.73"/><circle cx="856" cy="294" r="2.1" fill="#ffffff" opacity="0.90"/><circle cx="1015" cy="693" r="3.4" fill="#ffffff" opacity="0.81"/><circle cx="958" cy="495" r="2.9" fill="#ffffff" opacity="0.94"/><circle cx="379" cy="101" r="2.3" fill="#ffffff" opacity="0.53"/><circle cx="936" cy="250" r="1.6" fill="#ffffff" opacity="0.39"/><circle cx="220" cy="612" r="1.5" fill="#ffffff" opacity="0.81"/><circle cx="935" cy="259" r="3.2" fill="#ffffff" opacity="0.93"/><circle cx="224" cy="774" r="2.8" fill="#ffffff" opacity="0.78"/><circle cx="1134" cy="169" r="1.8" fill="#ffffff" opacity="0.88"/><circle cx="972" cy="366" r="1.6" fill="#ffffff" opacity="0.97"/><circle cx="337" cy="5" r="2.2" fill="#ffffff" opacity="0.67"/><circle cx="173" cy="551" r="1.1" fill="#ffffff" opacity="0.76"/><circle cx="46" cy="249" r="3.1" fill="#ffffff" opacity="0.31"/><circle cx="373" cy="292" r="1.8" fill="#ffffff" opacity="0.61"/><circle cx="810" cy="579" r="1.4" fill="#ffffff" opacity="0.37"/><circle cx="538" cy="203" r="3.8" fill="#ffffff" opacity="0.55"/><circle cx="441" cy="450" r="2.3" fill="#ffffff" opacity="0.60"/><circle cx="314" cy="260" r="2.8" fill="#ffffff" opacity="0.82"/><circle cx="113" cy="722" r="3.2" fill="#ffffff" opacity="0.63"/><circle cx="160" cy="156" r="1.9" fill="#ffffff" opacity="0.81"/><circle cx="333" cy="750" r="1.2" fill="#ffffff" opacity="0.48"/><circle cx="955" cy="714" r="1.9" fill="#ffffff" opacity="0.78"/><circle cx="1189" cy="513" r="1.6" fill="#ffffff" opacity="0.91"/><circle cx="684" cy="739" r="1.4" fill="#ffffff" opacity="0.60"/><circle cx="864" cy="595" r="1.3" fill="#ffffff" opacity="0.96"/><circle cx="196" cy="530" r="2.4" fill="#ffffff" opacity="0.47"/><circle cx="842" cy="22" r="3.8" fill="#ffffff" opacity="0.80"/><circle cx="35" cy="36" r="2.1" fill="#ffffff" opacity="0.77"/><circle cx="971" cy="744" r="3.5" fill="#ffffff" opacity="0.35"/><circle cx="354" cy="463" r="1.6" fill="#ffffff" opacity="0.47"/><circle cx="13" cy="365" r="3.4" fill="#ffffff" opacity="0.57"/><circle cx="293" cy="534" r="1.2" fill="#ffffff" opacity="0.94"/><circle cx="464" cy="327" r="2.9" fill="#ffffff" opacity="0.36"/><circle cx="440" cy="195" r="3.3" fill="#ffffff" opacity="0.52"/><circle cx="851" cy="744" r="1.2" fill="#ffffff" opacity="0.38"/><circle cx="1166" cy="574" r="2.1" fill="#ffffff" opacity="0.88"/><circle cx="702" cy="285" r="3.4" fill="#ffffff" opacity="0.42"/><circle cx="430" cy="189" r="2.5" fill="#ffffff" opacity="0.70"/><circle cx="192" cy="306" r="2.9" fill="#ffffff" opacity="0.83"/><circle cx="666" cy="202" r="3.0" fill="#ffffff" opacity="1.00"/><circle cx="467" cy="430" r="3.3" fill="#ffffff" opacity="0.33"/><circle cx="740" cy="334" r="4.0" fill="#ffffff" opacity="0.66"/><circle cx="1034" cy="787" r="3.9" fill="#ffffff" opacity="0.70"/><circle cx="585" cy="617" r="2.6" fill="#ffffff" opacity="0.84"/><circle cx="238" cy="489" r="1.2" fill="#ffffff" opacity="0.81"/><circle cx="506" cy="202" r="1.4" fill="#ffffff" opacity="0.88"/><circle cx="6" cy="367" r="1.6" fill="#ffffff" opacity="0.35"/><circle cx="1170" cy="421" r="3.7" fill="#ffffff" opacity="0.36"/><circle cx="468" cy="353" r="2.3" fill="#ffffff" opacity="0.61"/><circle cx="655" cy="91" r="1.4" fill="#ffffff" opacity="0.39"/><circle cx="53" cy="315" r="1.6" fill="#ffffff" opacity="0.90"/><circle cx="595" cy="672" r="1.2" fill="#ffffff" opacity="0.47"/><circle cx="1059" cy="334" r="3.7" fill="#ffffff" opacity="0.53"/><circle cx="980" cy="478" r="3.0" fill="#ffffff" opacity="0.91"/><circle cx="301" cy="443" r="2.9" fill="#ffffff" opacity="0.56"/><circle cx="442" cy="330" r="3.1" fill="#ffffff" opacity="0.84"/><circle cx="833" cy="606" r="3.6" fill="#ffffff" opacity="0.55"/><circle cx="816" cy="669" r="3.3" fill="#ffffff" opacity="0.37"/><circle cx="340" cy="153" r="1.3" fill="#ffffff" opacity="0.82"/><circle cx="369" cy="510" r="1.3" fill="#ffffff" opacity="0.44"/><circle cx="614" cy="661" r="4.0" fill="#ffffff" opacity="0.33"/><circle cx="914" cy="651" r="1.2" fill="#ffffff" opacity="0.50"/><circle cx="894" cy="289" r="1.0" fill="#ffffff" opacity="0.74"/><circle cx="1190" cy="731" r="1.2" fill="#ffffff" opacity="0.92"/><circle cx="295" cy="359" r="2.6" fill="#ffffff" opacity="0.53"/><circle cx="520" cy="538" r="3.6" fill="#ffffff" opacity="0.39"/><circle cx="897" cy="189" r="3.4" fill="#ffffff" opacity="0.96"/><circle cx="747" cy="765" r="3.9" fill="#ffffff" opacity="0.87"/><circle cx="720" cy="175" r="1.5" fill="#ffffff" opacity="0.57"/><circle cx="442" cy="22" r="3.9" fill="#ffffff" opacity="0.54"/><circle cx="569" cy="327" r="1.1" fill="#ffffff" opacity="0.84"/><circle cx="587" cy="89" r="3.8" fill="#ffffff" opacity="0.60"/><circle cx="755" cy="649" r="1.6" fill="#ffffff" opacity="0.55"/><circle cx="134" cy="226" r="1.0" fill="#ffffff" opacity="0.69"/><circle cx="892" cy="173" r="1.6" fill="#ffffff" opacity="0.39"/><circle cx="637" cy="532" r="3.5" fill="#ffffff" opacity="0.60"/><circle cx="365" cy="240" r="2.7" fill="#ffffff" opacity="0.51"/><circle cx="764" cy="751" r="2.1" fill="#ffffff" opacity="0.31"/><circle cx="681" cy="37" r="1.6" fill="#ffffff" opacity="0.81"/><circle cx="1077" cy="130" r="2.0" fill="#ffffff" opacity="0.72"/><circle cx="86" cy="373" r="3.7" fill="#ffffff" opacity="0.92"/><circle cx="1094" cy="727" r="1.8" fill="#ffffff" opacity="0.64"/><circle cx="863" cy="519" r="3.9" fill="#ffffff" opacity="0.93"/><circle cx="618" cy="570" r="1.0" fill="#ffffff" opacity="0.73"/><circle cx="503" cy="87" r="2.8" fill="#ffffff" opacity="0.47"/><circle cx="550" cy="663" r="3.5" fill="#ffffff" opacity="0.99"/><circle cx="351" cy="363" r="3.4" fill="#ffffff" opacity="0.52"/><circle cx="773" cy="245" r="1.9" fill="#ffffff" opacity="0.89"/><circle cx="526" cy="290" r="3.7" fill="#ffffff" opacity="0.86"/><circle cx="1104" cy="296" r="1.7" fill="#ffffff" opacity="0.78"/><circle cx="920" cy="200" r="70" fill="#fff9c4" opacity="0.9"/><circle cx="895" cy="185" r="58" fill="#2b2d2e"/></svg>